<svg xmlns="http://www.w3.org/2000/svg" viewBox="0 0 320 220">
  <rect width="320" height="220" rx="28" fill="#f7fcfa"/>
  <g transform="translate(62 42)">
    <rect x="76" y="0" width="42" height="72" rx="10" fill="#8ad0dc"/>
    <rect x="86" y="-10" width="22" height="18" rx="6" fill="#6cb8c7"/>
    <path d="M79 30h36" stroke="#fff" stroke-width="6" stroke-linecap="round"/>
    <path d="M32 102c8-12 27-16 39-8l20 14c5 3 12 2 16-3l16-21c5-6 14-8 21-4 8 5 10 15 4 22l-23 31c-9 13-26 17-40 10l-21-9-17 20H8l24-52Z" fill="#f2c2a7"/>
    <circle cx="168" cy="46" r="10" fill="#ffffff" stroke="#d0e7ec"/>
    <circle cx="148" cy="62" r="12" fill="#ffffff" stroke="#d0e7ec"/>
    <circle cx="188" cy="67" r="9" fill="#ffffff" stroke="#d0e7ec"/>
  </g>
  <text x="20" y="34" font-family="Arial, sans-serif" font-size="20" fill="#2d6953" font-weight="700">Handwashing & hygiene</text>
</svg>
